<svg xmlns="http://www.w3.org/2000/svg" width="71.929" height="15.464" viewBox="0 0 71.929 15.464">
  <g id="Grupo_1" data-name="Grupo 1" transform="translate(0)">
    <path id="Caminho_1" data-name="Caminho 1" d="M71.184.252H69.556a.681.681,0,0,0-.745.733V5.729c0,1.741-.953,2.727-2.28,2.727-1.4,0-2.186-.893-2.186-2.612V.985A.681.681,0,0,0,63.6.251H61.973a.681.681,0,0,0-.745.733V6.072c0,3.231,1.7,5.064,4.257,5.064A4.314,4.314,0,0,0,69.044,9.6l.14.642a.763.763,0,0,0,.814.641h1.186a.681.681,0,0,0,.745-.733V.985a.681.681,0,0,0-.745-.733ZM59.833,8.089H56.9a1.38,1.38,0,0,1-1.559-1.535V.985A.681.681,0,0,0,54.6.251H52.924a.68.68,0,0,0-.744.733V6.942a3.667,3.667,0,0,0,4,3.943h3.652a.681.681,0,0,0,.745-.733V8.821a.684.684,0,0,0-.748-.733ZM12.427.962a.694.694,0,0,0-.769-.71H10.425a.955.955,0,0,0-.883.5l-3,5L3.75.756a.931.931,0,0,0-.884-.5H1.541A.694.694,0,0,0,.772.962L.006,10.128a.618.618,0,0,0,.7.756H2.192a.68.68,0,0,0,.767-.71l.326-5.133L5.076,8.223a.934.934,0,0,0,.884.5H6.984a.918.918,0,0,0,.883-.5L9.892,4.809l.232,5.362a.662.662,0,0,0,.745.71h1.6a.616.616,0,0,0,.7-.756ZM50.016.252H48.737a.749.749,0,0,0-.814.665l-.07.527A4.555,4.555,0,0,0,44.341,0c-2.931,0-5.094,2.269-5.094,5.545,0,3.208,2.023,5.591,4.908,5.591A4.89,4.89,0,0,0,47.876,9.6l.116.642a.727.727,0,0,0,.791.641h1.233a.681.681,0,0,0,.744-.733V.985a.681.681,0,0,0-.745-.733Zm-5,8.2a2.6,2.6,0,0,1-2.7-2.865,2.652,2.652,0,0,1,2.7-2.91,2.6,2.6,0,0,1,2.7,2.865A2.656,2.656,0,0,1,45.019,8.455ZM37.386.252H36.107a.751.751,0,0,0-.815.665l-.07.527A4.552,4.552,0,0,0,31.71,0c-2.931,0-5.092,2.131-5.092,5.408,0,3.117,2,5.316,4.884,5.316a4.588,4.588,0,0,0,3.582-1.512v.527c0,1.833-1.047,3-3.256,3a6.512,6.512,0,0,1-2.629-.553.666.666,0,0,0-1,.32l-.512,1.009a.663.663,0,0,0,.256.985,8.751,8.751,0,0,0,4.21.962c3.652,0,5.978-2.269,5.978-5.431V.985a.682.682,0,0,0-.746-.733Zm-5,7.859a2.538,2.538,0,0,1-2.7-2.681,2.569,2.569,0,0,1,2.7-2.75,2.488,2.488,0,0,1,2.7,2.7A2.625,2.625,0,0,1,32.385,8.111ZM24.755.252H23.476a.751.751,0,0,0-.815.665l-.07.527A4.55,4.55,0,0,0,19.08,0c-2.931,0-5.094,2.269-5.094,5.545,0,3.208,2.024,5.591,4.908,5.591A4.891,4.891,0,0,0,22.615,9.6l.117.642a.726.726,0,0,0,.791.641h1.232a.681.681,0,0,0,.745-.733V.985a.681.681,0,0,0-.745-.733Zm-5,8.2a2.6,2.6,0,0,1-2.7-2.865,2.652,2.652,0,0,1,2.7-2.91,2.6,2.6,0,0,1,2.7,2.865A2.652,2.652,0,0,1,19.754,8.455Z" transform="translate(0)" fill="#fff"/>
  </g>
</svg>
